<?xml version="1.0" encoding="utf-8"?>
<!-- Generator: Adobe Illustrator 24.1.2, SVG Export Plug-In . SVG Version: 6.00 Build 0)  -->
<svg version="1.1" id="Layer_1" xmlns="http://www.w3.org/2000/svg" xmlns:xlink="http://www.w3.org/1999/xlink" x="0px" y="0px"
	 viewBox="0 0 220 60" style="enable-background:new 0 0 220 60;" xml:space="preserve">
<style type="text/css">
	.st0{fill:#272325;}
	.st1{fill:none;stroke:#272325;stroke-width:2;stroke-miterlimit:10;}
	.st2{fill:#272325;stroke:#272325;stroke-width:2;stroke-miterlimit:10;}
	.st3{fill:none;stroke:#272325;stroke-miterlimit:10;}
	.st4{fill:#272325;stroke:#272325;stroke-width:0.5;stroke-miterlimit:10;}
	.st5{fill:#EDB92D;}
	.st6{fill:none;stroke:#EDB92D;stroke-miterlimit:10;}
</style>
<g>
	<path class="st0" d="M68.14,35.87c0,8.85-7.05,16.02-16.02,16.02c-8.91,0-16.02-7.17-16.02-16.02c0-8.85,7.11-16.02,16.02-16.02
		C61.09,19.85,68.14,27.03,68.14,35.87 M40.94,35.81c0,6.22,4.96,11.42,11.18,11.42c6.22,0,11.24-5.2,11.24-11.42
		c0-6.22-5.02-11.3-11.24-11.3C45.9,24.52,40.94,29.6,40.94,35.81"/>
	<path class="st1" d="M68.14,35.87c0,8.85-7.05,16.02-16.02,16.02c-8.91,0-16.02-7.17-16.02-16.02c0-8.85,7.11-16.02,16.02-16.02
		C61.09,19.85,68.14,27.03,68.14,35.87z M40.94,35.81c0,6.22,4.96,11.42,11.18,11.42c6.22,0,11.24-5.2,11.24-11.42
		c0-6.22-5.02-11.3-11.24-11.3C45.9,24.52,40.94,29.6,40.94,35.81z"/>
	<path class="st2" d="M107.53,35.81c0,8.55-6.28,15.9-14.7,15.9c-4.48,0-8.91-2.21-11.24-5.62l-0.18,4.66h-9.98v-3.83l5.38-0.42
		V12.56l-5.44-0.42V8.32h10.22v17.21c2.33-3.41,6.75-5.56,11.18-5.56C101.25,19.97,107.53,27.32,107.53,35.81 M102.69,35.81
		c0-6.04-4.72-11.18-10.76-11.18c-4.96,0-8.67,2.87-10.34,5.62v11.12c1.67,2.81,5.38,5.68,10.34,5.68
		C97.97,47.05,102.69,41.91,102.69,35.81"/>
	<path class="st3" d="M107.53,35.81c0,8.55-6.28,15.9-14.7,15.9c-4.48,0-8.91-2.21-11.24-5.62l-0.18,4.66h-9.98v-3.83l5.38-0.42
		V12.56l-5.44-0.42V8.32h10.22v17.21c2.33-3.41,6.75-5.56,11.18-5.56C101.25,19.97,107.53,27.32,107.53,35.81z M102.69,35.81
		c0-6.04-4.72-11.18-10.76-11.18c-4.96,0-8.67,2.87-10.34,5.62v11.12c1.67,2.81,5.38,5.68,10.34,5.68
		C97.97,47.05,102.69,41.91,102.69,35.81z"/>
	<path class="st2" d="M144.35,35.87c0,8.85-7.05,16.02-16.02,16.02c-8.91,0-16.02-7.17-16.02-16.02c0-8.85,7.11-16.02,16.02-16.02
		C137.29,19.85,144.35,27.03,144.35,35.87 M117.15,35.81c0,6.22,4.96,11.42,11.18,11.42c6.22,0,11.24-5.2,11.24-11.42
		c0-6.22-5.02-11.3-11.24-11.3C122.11,24.52,117.15,29.6,117.15,35.81"/>
	<path class="st1" d="M144.35,35.87c0,8.85-7.05,16.02-16.02,16.02c-8.91,0-16.02-7.17-16.02-16.02c0-8.85,7.11-16.02,16.02-16.02
		C137.29,19.85,144.35,27.03,144.35,35.87z M117.15,35.81c0,6.22,4.96,11.42,11.18,11.42c6.22,0,11.24-5.2,11.24-11.42
		c0-6.22-5.02-11.3-11.24-11.3C122.11,24.52,117.15,29.6,117.15,35.81z"/>
	<polygon class="st4" points="184.6,46.93 184.6,50.76 171.93,50.76 171.93,46.93 174.2,46.69 169.54,40.18 167.68,37.01 
		165.83,40.18 161.11,46.69 163.68,46.93 163.68,50.76 150.59,50.76 150.59,46.93 155.67,46.51 164.16,35.39 156.33,25.11 
		151.19,24.69 151.19,20.87 164.04,20.87 164.04,24.69 161.65,24.93 165.65,30.67 167.5,33.78 169.42,30.67 173.54,24.93 
		171.15,24.69 171.15,20.87 183.94,20.87 183.94,24.69 178.92,25.11 171.09,35.27 179.64,46.51 	"/>
	<polygon class="st1" points="184.6,46.93 184.6,50.76 171.93,50.76 171.93,46.93 174.2,46.69 169.54,40.18 167.68,37.01 
		165.83,40.18 161.11,46.69 163.68,46.93 163.68,50.76 150.59,50.76 150.59,46.93 155.67,46.51 164.16,35.39 156.33,25.11 
		151.19,24.69 151.19,20.87 164.04,20.87 164.04,24.69 161.65,24.93 165.65,30.67 167.5,33.78 169.42,30.67 173.54,24.93 
		171.15,24.69 171.15,20.87 183.94,20.87 183.94,24.69 178.92,25.11 171.09,35.27 179.64,46.51 	"/>
	<path class="st5" d="M124.82,32.38c1.83-1.82,4.78-1.82,6.61,0c1.83,1.83,1.83,4.78,0,6.61c-1.83,1.82-4.78,1.82-6.61,0
		C122.99,37.17,122.99,34.21,124.82,32.38"/>
	<circle class="st6" cx="128.12" cy="35.69" r="4.67"/>
	<path class="st5" d="M111.74,19.98c0.99-1.22,2.13-2.27,3.32-3.25c1.19-0.98,2.45-1.86,3.78-2.66c1.33-0.8,2.73-1.5,4.25-2.07
		c1.52-0.55,3.12-1.02,5.04-1.05c1.92,0.03,3.51,0.5,5.04,1.05c1.52,0.56,2.92,1.26,4.25,2.06c1.33,0.8,2.6,1.68,3.78,2.66
		c1.18,0.99,2.32,2.03,3.31,3.26c-3.04-0.74-5.84-1.73-8.61-2.59c-1.38-0.44-2.74-0.87-4.07-1.19c-0.66-0.18-1.31-0.31-1.94-0.42
		l-0.92-0.14c-0.28-0.01-0.57-0.02-0.85-0.04c-0.28,0.02-0.56,0.03-0.85,0.04l-0.92,0.14c-0.63,0.11-1.28,0.24-1.94,0.42
		c-1.33,0.33-2.69,0.75-4.07,1.19C117.57,18.25,114.77,19.23,111.74,19.98"/>
</g>
</svg>
